<svg xmlns="http://www.w3.org/2000/svg" viewBox="0 0 1920 200" preserveAspectRatio="none">
  <path d="M0,200 L0,120 C50,115 100,130 150,125 C200,120 250,140 300,135 C350,130 400,145 450,140 C500,135 550,150 600,145 C650,140 700,155 750,150 C800,145 850,160 900,155 C950,150 1000,165 1050,160 C1100,155 1150,170 1200,165 C1250,160 1300,175 1350,170 C1400,165 1450,180 1500,175 C1550,170 1600,185 1650,180 C1700,175 1750,190 1800,185 C1850,180 1900,195 1920,190 L1920,200 Z" 
        fill="#050508" 
        stroke="none"/>
</svg>
